# xmcd CD database file
# Copyright (C) 1993-1998 Ti Kan
#
# Track frame offsets:
#  180
#  18886
#  45097
#  70006
#  88247
#  104325
#  116336
#  135131
#  157599
#  179319
#  193464
#  210989
#  237305
#
# Disc length: 3457 seconds
#
# Revision: 1
# Processed by: cddbd v1.4b41PL1 Copyright (c) Steve Scherf et al.
# Submitted via: CDWizzard Release:4.35
#
DISCID=980d7f0d
DTITLE=Eva Cassidy - Live At Blues Alley
DYEAR=1900
DGENRE=
TTITLE0=Cheek To Cheek
TTITLE1=Stormy Monday
TTITLE2=Bridge Over Troubled Water
TTITLE3=Fine And Mellow
TTITLE4=People Get Ready
TTITLE5=Blue Skies
TTITLE6=Tall Trees In Georgia
TTITLE7=Fields Of Gold
TTITLE8=Autumn Leaves
TTITLE9=Honeysuckle Rose
TTITLE10=Take Me To The River
TTITLE11=What A Wonderful World
TTITLE12=Golden Thread
EXTD=
EXTT0=
EXTT1=
EXTT2=
EXTT3=
EXTT4=
EXTT5=
EXTT6=
EXTT7=
EXTT8=
EXTT9=
EXTT10=
EXTT11=
EXTT12=
PLAYORDER=
